# xmcd
#
# Track frame offsets:
# 150
# 18560
# 38597
# 56997
#
# Disc length: 1026 seconds
#
# Revision: 0
# Processed by: cddbd v1.5PL3 Copyright (c) Steve Scherf et al.
# Submitted via: MacMP3 Pro 5.0 (http://mp3.act2.co.jp/)
#
DISCID=2e040004
DTITLE=HIROKO_MORIGUCHI - SAY SAY SAY
DYEAR=1900
DGENRE=
TTITLE0=SAY SAY SAY
TTITLE1=AISITEIRUKOTOMO_IEZUNI....
TTITLE2=SAY SAY SAY(Instrumental)
TTITLE3=AISITEIRUKOTOMO_IEZUNI....(Instrumental)
EXTD=
EXTT0=
EXTT1=
EXTT2=
EXTT3=
PLAYORDER=
